<svg xmlns="http://www.w3.org/2000/svg" width="49.016" height="49" viewBox="0 0 49.016 49">
  <g id="etherscan-logo-circle" transform="translate(0 0)">
    <path id="Path_1" data-name="Path 1" d="M10.187,23.329a2.077,2.077,0,0,1,2.077-2.078h.01l3.46.011a2.08,2.08,0,0,1,2.08,2.08h0V36.426c.39-.115.89-.239,1.437-.367a1.733,1.733,0,0,0,1.336-1.687V18.143a2.081,2.081,0,0,1,2.08-2.081h3.467a2.08,2.08,0,0,1,2.08,2.08V33.206s.868-.351,1.713-.708a1.736,1.736,0,0,0,1.06-1.6V12.942a2.08,2.08,0,0,1,2.08-2.08h3.467a2.08,2.08,0,0,1,2.08,2.08V27.729a40.66,40.66,0,0,0,8.469-7.948,3.492,3.492,0,0,0,.531-3.26A24.486,24.486,0,1,0,3.254,36.756a3.1,3.1,0,0,0,2.954,1.53c.656-.058,1.472-.139,2.443-.253a1.732,1.732,0,0,0,1.536-1.72V23.329" transform="translate(0 0)"/>
    <path id="Path_2" data-name="Path 2" d="M60.6,158.278a24.495,24.495,0,0,0,38.9-19.812c0-.564-.026-1.122-.064-1.677-8.95,13.348-25.475,19.588-38.84,21.489" transform="translate(-50.49 -113.967)"/>
  </g>
</svg>
