<?xml version="1.0" encoding="UTF-8"?>
<svg width="535px" height="56px" viewBox="0 0 535 56" version="1.1" xmlns="http://www.w3.org/2000/svg" xmlns:xlink="http://www.w3.org/1999/xlink">
    <!-- Generator: Sketch 59.1 (86144) - https://sketch.com -->
    <title>coinlist_logo_black</title>
    <desc>Created with Sketch.</desc>
    <defs>
        <polygon id="path-1" points="54.0529 0.8 0.6969 0.8 0.6969 55.7626 54.0529 55.7626 54.0529 0.8"></polygon>
        <polygon id="path-3" points="0 56.2003 534.988 56.2003 534.988 1.0003 0 1.0003"></polygon>
    </defs>
    <g id="Page-1" stroke="none" stroke-width="1" fill="none" fill-rule="evenodd">
        <g id="01" transform="translate(-453.000000, -158.000000)">
            <g id="coinlist_logo_black" transform="translate(453.000000, 157.000000)">
                <g id="Group-3" transform="translate(78.000000, 0.200300)">
                    <mask id="mask-2" fill="white">
                        <use xlink:href="#path-1"></use>
                    </mask>
                    <g id="Clip-2"></g>
                    <path d="M9.0509,7.1766 C7.9609,7.1766 7.0739,8.0636 7.0739,9.1526 L7.0739,47.4096 C7.0739,48.4996 7.9609,49.3856 9.0509,49.3856 L45.6999,49.3856 C46.7899,49.3856 47.6759,48.4996 47.6759,47.4096 L47.6759,9.1526 C47.6759,8.0636 46.7899,7.1766 45.6999,7.1766 L9.0509,7.1766 Z M45.6999,55.7626 L9.0509,55.7626 C4.4449,55.7626 0.6969,52.0156 0.6969,47.4096 L0.6969,9.1526 C0.6969,4.5466 4.4449,0.7996 9.0509,0.7996 L45.6999,0.7996 C50.3059,0.7996 54.0529,4.5466 54.0529,9.1526 L54.0529,47.4096 C54.0529,52.0156 50.3059,55.7626 45.6999,55.7626 L45.6999,55.7626 Z" id="Fill-1" fill="#000000" mask="url(#mask-2)"></path>
                </g>
                <path d="M448.2057,56.0595 L409.6927,56.0595 L409.6927,49.6825 L448.2057,49.6825 C449.2947,49.6825 450.1817,48.7955 450.1817,47.7055 L450.1817,33.3495 C450.1817,32.2595 449.2947,31.3725 446.0877,31.3725 L415.8267,31.3725 C413.3387,31.3725 409.5917,27.6255 409.5917,23.0195 L409.5917,9.4495 C409.5917,4.8435 413.3387,1.0965 417.9437,1.0965 L454.8797,1.0965 L454.8797,7.4735 L417.9437,7.4735 C416.8547,7.4735 415.9687,8.3595 415.9687,9.4495 L415.9687,23.0195 C415.9687,24.1095 416.8547,24.9965 417.9437,24.9965 L448.2057,24.9965 C452.8107,24.9965 456.5587,28.7435 456.5587,33.3495 L456.5587,47.7055 C456.5587,52.3125 452.8107,56.0595 448.2057,56.0595" id="Fill-4" fill="#000000"></path>
                <polygon id="Fill-6" fill="#000000" points="337.0621 56.0483 295.0231 56.0483 295.0231 1.0943 301.4001 1.0943 301.4001 49.6713 337.0621 49.6713"></polygon>
                <polygon id="Fill-8" fill="#000000" points="254.1207 56.039 214.5747 10.726 214.5747 56.096 208.1977 56.096 208.1977 1.089 214.6277 1.089 255.1747 47.541 255.1697 1.095 261.5467 1.095 261.5527 56.039"></polygon>
                <mask id="mask-4" fill="white">
                    <use xlink:href="#path-3"></use>
                </mask>
                <g id="Clip-11"></g>
                <polygon id="Fill-10" fill="#000000" mask="url(#mask-4)" points="166.929 56.0583 173.332 56.0583 173.332 1.0953 166.929 1.0953"></polygon>
                <polygon id="Fill-12" fill="#000000" mask="url(#mask-4)" points="367.691 56.0533 374.094 56.0533 374.094 1.0893 367.691 1.0893"></polygon>
                <polygon id="Fill-13" fill="#000000" mask="url(#mask-4)" points="534.9879 1.0976 512.5349 1.0976 512.5349 1.0896 506.1319 1.0896 506.1319 1.0976 483.6779 1.0976 483.6779 7.5016 506.1319 7.5016 506.1319 56.0576 512.5349 56.0576 512.5349 7.5016 534.9879 7.5016"></polygon>
                <path d="M47.0128,55.9633 L8.3528,55.9633 C3.7468,55.9633 -0.0002,52.2153 -0.0002,47.6103 L-0.0002,9.3533 C-0.0002,4.7473 3.7468,1.0003 8.3528,1.0003 L47.0128,1.0003 L47.0128,7.3773 L8.3528,7.3773 C7.2628,7.3773 6.3768,8.2633 6.3768,9.3533 L6.3768,47.6103 C6.3768,48.6993 7.2628,49.5863 8.3528,49.5863 L47.0128,49.5863 L47.0128,55.9633 Z" id="Fill-14" fill="#000000" mask="url(#mask-4)"></path>
            </g>
        </g>
    </g>
</svg>