<svg xmlns="http://www.w3.org/2000/svg" width="82.22" height="126.234" viewBox="0 0 82.22 126.234">
  <g id="Сгруппировать_57" data-name="Сгруппировать 57" transform="translate(-97.252 -12.552)">
    <path id="Контур_10" data-name="Контур 10" d="M183.6,155.023,139.827,81.539,155.989,71.9l43.1,72.8Z" transform="translate(-31.543 -43.969)" fill="#ff4646"/>
    <g id="Сгруппировать_56" data-name="Сгруппировать 56" transform="translate(97.252 12.552)">
      <g id="Сгруппировать_55" data-name="Сгруппировать 55">
        <g id="Сгруппировать_40" data-name="Сгруппировать 40" transform="translate(4.302 10.883)">
          <path id="Контур_11" data-name="Контур 11" d="M164.6,143.16a3.219,3.219,0,0,1-.855-.1,3.537,3.537,0,0,1-2.177-1.633L132.107,92.112,128.4,85.919l-9.614-16.144L115.419,71.8a1.04,1.04,0,1,1-1.062-1.788l4.276-2.565a1.021,1.021,0,0,1,.777-.1,1.172,1.172,0,0,1,.648.466L130.215,84.83l3.706,6.193,29.463,49.312a1.5,1.5,0,0,0,.907.674,1.463,1.463,0,0,0,1.088-.155l12.827-7.644a1.381,1.381,0,0,0,.648-.881,1.512,1.512,0,0,0-.155-1.114L135.372,58.659a1.047,1.047,0,0,1,.363-1.425l4.276-2.539a1.04,1.04,0,1,1,1.062,1.788L137.7,58.5l42.782,71.649a3.512,3.512,0,0,1-1.218,4.82l-12.8,7.644A3.438,3.438,0,0,1,164.6,143.16Z" transform="translate(-113.852 -54.552)" fill="#fff"/>
        </g>
        <g id="Сгруппировать_41" data-name="Сгруппировать 41" transform="translate(8.551 13.449)">
          <path id="Контур_12" data-name="Контур 12" d="M131.275,76.721a.983.983,0,0,1-.881-.518,1.047,1.047,0,0,1,.363-1.425l17.077-10.184a1.04,1.04,0,1,1,1.062,1.788L131.819,76.566A.879.879,0,0,1,131.275,76.721Z" transform="translate(-130.252 -64.452)" fill="#fff"/>
        </g>
        <g id="Сгруппировать_42" data-name="Сгруппировать 42" transform="translate(71.882 110.285)">
          <path id="Контур_13" data-name="Контур 13" d="M383.941,454.1a.982.982,0,0,1-.881-.518l-8.266-13.863a1.04,1.04,0,1,1,1.788-1.062l8.266,13.863a1.047,1.047,0,0,1-.363,1.425A.878.878,0,0,1,383.941,454.1Z" transform="translate(-374.652 -438.152)" fill="#fff"/>
        </g>
        <g id="Сгруппировать_43" data-name="Сгруппировать 43" transform="translate(57.394 90.691)">
          <path id="Контур_14" data-name="Контур 14" d="M332.748,384.734h0a3.562,3.562,0,0,1-2.8-1.347l-10.987-14.071a1.065,1.065,0,0,1-.207-.829,1.045,1.045,0,0,1,.492-.7l8.551-5.1a1.1,1.1,0,0,1,.855-.1.974.974,0,0,1,.622.57l7.178,16.351a3.5,3.5,0,0,1-1.425,4.431l-.492.311A3.638,3.638,0,0,1,332.748,384.734ZM321.32,368.953l10.261,13.138a1.461,1.461,0,0,0,1.166.57h0a1.562,1.562,0,0,0,.751-.207l.492-.285a1.466,1.466,0,0,0,.6-1.814l-6.711-15.263Z" transform="translate(-318.739 -362.536)" fill="#fff"/>
        </g>
        <g id="Сгруппировать_44" data-name="Сгруппировать 44">
          <path id="Контур_15" data-name="Контур 15" d="M110.92,35.445a.882.882,0,0,1-.259-.026,1.172,1.172,0,0,1-.648-.466l-7.048-11.816-4.146,2.488a1.04,1.04,0,0,1-1.062-1.788l5.053-3.006a1.053,1.053,0,0,1,1.425.363l7.048,11.79,6.763-4.042L111,17.151a1.021,1.021,0,0,1-.1-.777,1.173,1.173,0,0,1,.466-.648l5.053-3.032a1.04,1.04,0,0,1,1.062,1.788L113.3,16.969l7.048,11.79a1.047,1.047,0,0,1-.363,1.425l-8.525,5.1A1.089,1.089,0,0,1,110.92,35.445Z" transform="translate(-97.252 -12.552)" fill="#fff"/>
        </g>
        <g id="Сгруппировать_45" data-name="Сгруппировать 45" transform="translate(5.053 3.032)">
          <path id="Контур_16" data-name="Контур 16" d="M117.775,31.416a1.011,1.011,0,0,1-.881-.492,1.047,1.047,0,0,1,.363-1.425l8.525-5.1a1.04,1.04,0,0,1,1.062,1.788l-8.525,5.1A1.293,1.293,0,0,1,117.775,31.416Z" transform="translate(-116.752 -24.252)" fill="#fff"/>
        </g>
        <g id="Сгруппировать_46" data-name="Сгруппировать 46" transform="translate(18.839 37.107)">
          <path id="Контур_17" data-name="Контур 17" d="M170.975,161.595a1.011,1.011,0,0,1-.881-.492,1.047,1.047,0,0,1,.363-1.425l6.323-3.783a1.04,1.04,0,1,1,1.062,1.788l-6.323,3.783A1.393,1.393,0,0,1,170.975,161.595Z" transform="translate(-169.952 -155.752)" fill="#fff"/>
        </g>
        <g id="Сгруппировать_47" data-name="Сгруппировать 47" transform="translate(22.596 43.352)">
          <path id="Контур_18" data-name="Контур 18" d="M185.475,185.721a1.011,1.011,0,0,1-.881-.492,1.047,1.047,0,0,1,.363-1.425l6.323-3.809a1.04,1.04,0,1,1,1.062,1.788l-6.323,3.809A1.393,1.393,0,0,1,185.475,185.721Z" transform="translate(-184.452 -179.852)" fill="#fff"/>
        </g>
        <g id="Сгруппировать_48" data-name="Сгруппировать 48" transform="translate(26.327 49.623)">
          <path id="Контур_19" data-name="Контур 19" d="M199.875,209.895a1.011,1.011,0,0,1-.881-.492,1.047,1.047,0,0,1,.363-1.425l6.323-3.783a1.04,1.04,0,0,1,1.062,1.788l-6.323,3.783A1.052,1.052,0,0,1,199.875,209.895Z" transform="translate(-198.852 -204.052)" fill="#fff"/>
        </g>
        <g id="Сгруппировать_49" data-name="Сгруппировать 49" transform="translate(30.085 55.894)">
          <path id="Контур_20" data-name="Контур 20" d="M214.375,234.095a1.011,1.011,0,0,1-.881-.492,1.047,1.047,0,0,1,.363-1.425l6.323-3.783a1.04,1.04,0,0,1,1.062,1.788l-6.323,3.783A1.393,1.393,0,0,1,214.375,234.095Z" transform="translate(-213.352 -228.252)" fill="#fff"/>
        </g>
        <g id="Сгруппировать_50" data-name="Сгруппировать 50" transform="translate(33.816 62.165)">
          <path id="Контур_21" data-name="Контур 21" d="M228.775,258.295a.982.982,0,0,1-.881-.518,1.047,1.047,0,0,1,.363-1.425l6.3-3.757a1.04,1.04,0,0,1,1.062,1.788l-6.323,3.783A1.18,1.18,0,0,1,228.775,258.295Z" transform="translate(-227.752 -252.452)" fill="#fff"/>
        </g>
        <g id="Сгруппировать_51" data-name="Сгруппировать 51" transform="translate(37.548 68.41)">
          <path id="Контур_22" data-name="Контур 22" d="M243.175,282.421a.983.983,0,0,1-.881-.518,1.047,1.047,0,0,1,.363-1.425l6.323-3.783a1.04,1.04,0,0,1,1.062,1.788l-6.323,3.783A1.089,1.089,0,0,1,243.175,282.421Z" transform="translate(-242.152 -276.552)" fill="#fff"/>
        </g>
        <g id="Сгруппировать_52" data-name="Сгруппировать 52" transform="translate(41.279 74.681)">
          <path id="Контур_23" data-name="Контур 23" d="M257.575,306.621a.982.982,0,0,1-.881-.518,1.047,1.047,0,0,1,.363-1.425l6.323-3.783a1.04,1.04,0,1,1,1.062,1.788l-6.323,3.783A1.02,1.02,0,0,1,257.575,306.621Z" transform="translate(-256.552 -300.752)" fill="#fff"/>
        </g>
        <g id="Сгруппировать_53" data-name="Сгруппировать 53" transform="translate(45.036 80.952)">
          <path id="Контур_24" data-name="Контур 24" d="M272.075,330.821a.983.983,0,0,1-.881-.518,1.047,1.047,0,0,1,.363-1.425l6.323-3.783a1.04,1.04,0,1,1,1.062,1.788l-6.349,3.783A.935.935,0,0,1,272.075,330.821Z" transform="translate(-271.052 -324.952)" fill="#fff"/>
        </g>
        <g id="Сгруппировать_54" data-name="Сгруппировать 54" transform="translate(48.768 87.223)">
          <path id="Контур_25" data-name="Контур 25" d="M286.475,355.021a.982.982,0,0,1-.881-.518,1.047,1.047,0,0,1,.363-1.425l6.349-3.783a1.04,1.04,0,1,1,1.062,1.788l-6.349,3.783A1.089,1.089,0,0,1,286.475,355.021Z" transform="translate(-285.452 -349.152)" fill="#fff"/>
        </g>
      </g>
    </g>
  </g>
</svg>
