<?xml version="1.0" encoding="utf-8"?>
<!-- Generator: Adobe Illustrator 24.2.3, SVG Export Plug-In . SVG Version: 6.00 Build 0)  -->
<svg version="1.1" id="Layer_1" xmlns="http://www.w3.org/2000/svg" xmlns:xlink="http://www.w3.org/1999/xlink" x="0px" y="0px"
	 viewBox="0 0 632 629" style="enable-background:new 0 0 632 629;" xml:space="preserve">
<style type="text/css">
	.st0{fill:#FFFD2F;}
	.st1{fill:#2CDB8D;}
	.st2{fill:#22D3FF;}
	.st3{fill:#364D84;}
	.st4{fill:#FFFFFF;}
	.st5{fill:#FF4343;}
</style>
<path class="st0" d="M607,319h-71c0,0.2,0,0.3,0,0.5C536,438,440,534,321.5,534c-22.9,0-46.8-4.3-67.5-11l-22,69
	c27.7,9,58.8,14,89.5,14C479.2,606,607,478.2,607,320.5C607,320,607,319.5,607,319z"/>
<path class="st1" d="M109.9,277.6c5.3-29,19.3-59.8,37.1-85.6c0.1-0.1-0.1-0.9,0-1l-59-40c-0.3,0.4-2.4,3.7-2.7,4.1
	C61.9,189,46.9,226.2,39.8,264.2L109.9,277.6z"/>
<path class="st2" d="M175.4,157.5c21.8-19.8,50-35.4,79.8-45.1c0.2-0.1,0.3-0.1,0.5-0.1l-22-68.5c-0.5,0.2-1,0.3-1.4,0.4
	c-39.2,12.8-75.7,34.2-104.4,60L175.4,157.5z"/>
<path class="st3" d="M128,105c-14.6,13.9-28.6,29.7-39.7,45.9l58.8,40.5c8-11.9,18.4-24.3,28.9-34.5L128,105z"/>
<g>
	<path class="st4" d="M278.1,266.1h4.2v22.1h-2.6v0l-11.6-14.9v14.9h-4.2v-22.1h3.4l10.8,13.7V266.1z"/>
	<path class="st4" d="M285.1,266.1h17v2l-11.5,16.2h11.5v3.9h-17.3v-2.4l11.2-15.8h-10.9V266.1z"/>
	<path class="st4" d="M310.3,269.9h-7v-3.8c6.4,0,11.8,0,18.2,0v3.8h-7v18.3h-4.2V269.9z"/>
	<path class="st4" d="M323.6,276.2h11.6v3.5h-11.6V276.2z"/>
	<path class="st4" d="M354.2,266.2V280h2.6v4h-2.6v4.2h-4.1V284h-11.8l-0.4-4.2l9.9-13.6H354.2z M350.1,280v-10.2l-7.5,10.2H350.1z"
		/>
	<path class="st4" d="M363,276.8c-1.9-1-2.8-2.7-2.8-4.4c0-4.5,4.1-6.7,8.9-6.7c4.8,0,9.1,2.3,9.1,6.7c0,1.5-0.9,3.3-2.8,4.2
		c2.3,0.9,3.3,3.2,3.3,4.9c0.1,5.1-4.6,7.2-9.6,7.2c-4.8,0-9.6-2-9.5-7.2C359.7,279.9,360.7,277.8,363,276.8z M364,281.6
		c0,1.7,1.8,3.3,5.2,3.3s5.2-1.6,5.2-3.3c0-2.2-2.4-3.2-5.2-3.2C366.6,278.5,364,279.5,364,281.6z M369.2,275.4
		c2.6,0,4.6-1.2,4.7-3.1c0.1-1.9-1.9-3.1-4.7-3.1c-3.1,0-4.7,1.6-4.6,3.1C364.6,274.3,366.7,275.4,369.2,275.4z"/>
	<path class="st4" d="M253.7,310.1l-7.2,9.6h-0.8l-7-9.6v16.1h-4.2v-22.1h4.8l6.9,9.5l6.9-9.5h4.8v22.1h-4.2V310.1z"/>
	<path class="st4" d="M274.1,310.6h3.7v15.6h-3.6l-0.2-2.3c-0.9,1.8-3.3,2.7-5.1,2.7c-4.6,0-8-2.8-8-8.3c0-5.4,3.6-8.2,8.1-8.1
		c2.1,0,4.1,1,5,2.5L274.1,310.6z M264.8,318.3c0,3,2.1,4.7,4.6,4.7c6.1,0,6.1-9.4,0-9.4C266.9,313.6,264.8,315.4,264.8,318.3z"/>
	<path class="st4" d="M291,310.6h4.6v0.1l-5.1,7.5l5.4,7.8v0.1h-4.6l-3.4-5.2l-3.4,5.2H280V326l5.4-7.8l-5.1-7.5v-0.1h4.6l3.1,5.3
		L291,310.6z"/>
	<path class="st4" d="M314.4,314.7c-1.1-1-2.4-1.4-3.9-1.4c-1.8,0-2.8,0.6-2.8,1.5c0,1,0.9,1.6,2.9,1.7c2.9,0.2,6.7,0.9,6.7,5
		c0,2.7-2.2,5.1-6.7,5.1c-2.5,0-4.9-0.4-7.2-2.8l1.9-2.7c1.1,1.2,3.6,2.1,5.4,2.2c1.5,0,2.8-0.7,2.8-1.9c0-1.1-0.9-1.5-3.1-1.6
		c-2.9-0.2-6.4-1.3-6.4-4.8c0-3.6,3.7-4.9,6.6-4.9c2.4,0,4.3,0.5,6.1,2.1L314.4,314.7z"/>
	<path class="st4" d="M323.7,310.6v8.1c0,2.4,1.3,4.2,3.8,4.2c2.4,0,4-2,4-4.4v-8h3.8v15.6h-3.4l-0.3-2.1c-1.6,1.6-3.1,2.3-5.3,2.3
		c-3.7,0-6.4-2.8-6.4-7.6v-8.2H323.7z"/>
	<path class="st4" d="M338.7,332.6v-22.1h3.6l0.3,2.1c1.2-1.7,3.3-2.5,5.1-2.5c4.8,0,8,3.6,8,8.1c0,4.5-2.9,8.1-7.9,8.1
		c-1.6,0-4.1-0.5-5.2-2.2v8.3H338.7z M351.7,318.4c0-2.4-1.6-4.4-4.4-4.4s-4.4,2-4.4,4.4c0,2.4,1.8,4.4,4.4,4.4
		S351.7,320.8,351.7,318.4z"/>
	<path class="st4" d="M358.4,332.6v-22.1h3.6l0.3,2.1c1.2-1.7,3.3-2.5,5.1-2.5c4.8,0,8,3.6,8,8.1c0,4.5-2.9,8.1-7.9,8.1
		c-1.6,0-4.1-0.5-5.2-2.2v8.3H358.4z M371.4,318.4c0-2.4-1.6-4.4-4.4-4.4s-4.4,2-4.4,4.4c0,2.4,1.8,4.4,4.4,4.4
		S371.4,320.8,371.4,318.4z"/>
	<path class="st4" d="M382,304.1v22.1h-3.8v-22.1H382z"/>
	<path class="st4" d="M401.3,310.6l-9.5,22.1h-4.2l2.9-6.8l-6.2-15.3h4.5l2.4,6.7l1.5,4.4l1.6-4.3l2.8-6.8H401.3z"/>
	<path class="st4" d="M408,315c0,2.9-4.5,2.9-4.5,0C403.5,312,408,312,408,315z M408,324.1c0,2.9-4.5,2.9-4.5,0
		C403.5,321.2,408,321.2,408,324.1z"/>
	<path class="st4" d="M241.9,360.5h3.3v-14.8h-3.4v-3.8h7.6v18.6h3.1v3.5h-10.5V360.5z"/>
	<path class="st4" d="M257.7,367.1h-2.2l0.6-3.1c-0.9-0.2-1.5-0.7-1.5-1.7c0-2.9,4.5-2.8,4.5,0.1
		C259.1,362.7,259.2,362.6,257.7,367.1z"/>
	<path class="st4" d="M262.1,351.3c0-13.2,19.4-13.2,19.4,0v3.2c0,13.2-19.4,13.2-19.4,0V351.3z M266.2,354.5c0,8,11.1,8,11.1,0
		v-3.2c0-7.9-11.1-8-11.1,0V354.5z"/>
	<path class="st4" d="M284.1,351.3c0-13.2,19.4-13.2,19.4,0v3.2c0,13.2-19.4,13.2-19.4,0V351.3z M288.2,354.5c0,8,11.1,8,11.1,0
		v-3.2c0-7.9-11.1-8-11.1,0V354.5z"/>
	<path class="st4" d="M306,351.3c0-13.2,19.4-13.2,19.4,0v3.2c0,13.2-19.4,13.2-19.4,0V351.3z M310.2,354.5c0,8,11.1,8,11.1,0v-3.2
		c0-7.9-11.1-8-11.1,0V354.5z"/>
	<path class="st4" d="M331.5,367.1h-2.2l0.6-3.1c-0.9-0.2-1.5-0.7-1.5-1.7c0-2.9,4.5-2.8,4.5,0.1
		C332.9,362.7,332.9,362.6,331.5,367.1z"/>
	<path class="st4" d="M335.9,351.3c0-13.2,19.4-13.2,19.4,0v3.2c0,13.2-19.4,13.2-19.4,0V351.3z M340,354.5c0,8,11.1,8,11.1,0v-3.2
		c0-7.9-11.1-8-11.1,0V354.5z"/>
	<path class="st4" d="M357.8,351.3c0-13.2,19.4-13.2,19.4,0v3.2c0,13.2-19.4,13.2-19.4,0V351.3z M362,354.5c0,8,11.1,8,11.1,0v-3.2
		c0-7.9-11.1-8-11.1,0V354.5z"/>
	<path class="st4" d="M379.8,351.3c0-13.2,19.4-13.2,19.4,0v3.2c0,13.2-19.4,13.2-19.4,0V351.3z M383.9,354.5c0,8,11.1,8,11.1,0
		v-3.2c0-7.9-11.1-8-11.1,0V354.5z"/>
</g>
<rect x="-635" y="-34.3" style="fill:none;" width="234.4" height="139.4"/>
<text transform="matrix(1 0 0 1 -592.3647 -6.2959)"><tspan x="0" y="0" class="st4" style="font-family:'NexaBold'; font-size:40px;">NZT-48</tspan><tspan x="-36.9" y="48" class="st4" style="font-family:'NexaBold'; font-size:40px;">Max supply: </tspan><tspan x="-26.3" y="96" class="st4" style="font-family:'NexaBold'; font-size:40px;">1,000,000</tspan></text>
<path class="st4" d="M83,315c0-14.4,1.3-28.6,3.8-42.3L40,264C14.5,403.4,93,547.8,231.6,591.8c0.2,0.1,0.3,0.1,0.5,0.1l16.9-51.5
	C152.8,510.6,83,420.9,83,315z"/>
<path class="st5" d="M321.9,30c-30.7,0-60.2,4.9-88,13.8l17.5,53.8c21.1-6.3,43.5-9.7,66.6-9.7c128,0,231.9,103.2,233,231h56.4
	c0-0.5,0-1,0-1.5C607.4,159.8,479.5,30,321.9,30z"/>
</svg>
