<svg xmlns="http://www.w3.org/2000/svg" width="47.222" height="47.251" viewBox="0 0 47.222 47.251">
  <g id="Group_58" data-name="Group 58" transform="translate(0 0)">
    <path id="Path_26" data-name="Path 26" d="M48.456,2.011c-7.773,3.211-15.039,7.6-22.474,11.49C18.04,17.557,10.267,22.119,2.325,26.344c-.507.338-.338,1.352.169,1.352a155.586,155.586,0,0,1,15.377,3.38c.169,5.745,0,11.659,0,17.4,0,.845.845,1.014,1.183.338,2.7-4.393,5.407-8.618,8.28-12.842,4.055,2.7,8.111,5.407,11.828,8.449.338.338.845,0,1.014-.507C41.359,36.989,42.542,30.23,44.4,23.3c1.69-6.759,3.38-13.687,4.731-20.615C49.47,2.518,48.963,1.842,48.456,2.011Zm-26.023,29.4a.878.878,0,0,0-.338.676,14.09,14.09,0,0,0-.676,2.028c-.845,3.549-1.352,7.1-2.2,10.646V30.737C27.165,22.964,35.276,15.36,43.555,8.094c-4.9,5.407-9.8,10.815-14.87,16.391l-4.562,5.069A5.621,5.621,0,0,0,22.433,31.413ZM45.076,5.053C35.951,12.995,27,21.274,18.378,29.723c-4.562-1.183-9.125-2.366-13.687-3.211,7.266-3.718,14.194-7.6,21.291-11.322C32.4,11.812,38.655,8.094,45.076,5.053ZM20.237,44.593c.845-3.042,1.352-6.252,2.028-9.463.169-.845.338-1.521.507-2.2,1.183.845,2.366,1.69,3.549,2.366C24.292,38.341,22.264,41.552,20.237,44.593ZM43.218,23.3c-1.69,6.421-2.873,12.842-4.055,19.432C34.093,38.848,28.685,35.3,23.447,31.751a.165.165,0,0,1,.169-.169,25.989,25.989,0,0,1,2.028-2.2l4.562-5.069C35.951,18.064,41.7,11.643,47.442,5.391,46.259,11.3,44.738,17.219,43.218,23.3Z" transform="translate(-2.019 -1.984)"/>
    <path id="Path_27" data-name="Path 27" d="M9.437,18.083c1.521-1.014,3.211-2.028,4.731-3.042.507-.338,0-1.352-.507-1.014-1.521,1.014-3.211,2.028-4.731,3.042A.567.567,0,1,0,9.437,18.083Z" transform="translate(2.528 6.276)"/>
    <path id="Path_28" data-name="Path 28" d="M12.782,15.532c-.676.507-1.521.845-2.2,1.352-.507.338,0,1.352.507,1.014.676-.507,1.521-.845,2.2-1.352C13.8,16.039,13.289,15.194,12.782,15.532Z" transform="translate(3.746 7.307)"/>
  </g>
</svg>
