<svg xmlns="http://www.w3.org/2000/svg" width="43.52" height="48.96" viewBox="0 0 43.52 48.96">
  <path id="Path_29" data-name="Path 29" d="M31.2,3H20.32A16.319,16.319,0,0,0,4,19.32V35.64A16.319,16.319,0,0,0,20.32,51.96H31.2a16.261,16.261,0,0,0,11.663-4.918L40.53,45.486A13.525,13.525,0,0,1,31.2,49.24H20.32a13.615,13.615,0,0,1-13.6-13.6V19.32a13.615,13.615,0,0,1,13.6-13.6H31.2a13.615,13.615,0,0,1,13.6,13.6v13.6a2.724,2.724,0,0,1-2.72,2.72H36.64a2.724,2.724,0,0,1-2.72-2.72V22.04a5.439,5.439,0,0,0-5.44-5.44H23.04a5.439,5.439,0,0,0-5.44,5.44V32.92a5.439,5.439,0,0,0,5.44,5.44h5.44a5.4,5.4,0,0,0,4.08-1.877,5.4,5.4,0,0,0,4.08,1.877h5.44a5.439,5.439,0,0,0,5.44-5.44V19.32A16.319,16.319,0,0,0,31.2,3ZM28.48,35.64H23.04a2.724,2.724,0,0,1-2.72-2.72V22.04a2.724,2.724,0,0,1,2.72-2.72h5.44a2.724,2.724,0,0,1,2.72,2.72V32.92A2.724,2.724,0,0,1,28.48,35.64Z" transform="translate(-4 -3)"/>
</svg>
