<svg xmlns="http://www.w3.org/2000/svg" width="123.391" height="137.418" viewBox="0 0 123.391 137.418">
  <g id="Сгруппировать_3" data-name="Сгруппировать 3" transform="translate(0 -660.341)">
    <g id="Layer_2" data-name="Layer 2" transform="translate(56.194 730.496)">
      <path id="Контур_2" data-name="Контур 2" d="M2459.557,3762.222c-4.707-2.033-7.06-3.05-8.87-4.646a13.67,13.67,0,0,1-4.646-6.477c-.682-2.34-.368-4.239.141-7.322.634-3.838,1.464-4.374,2.253-9.011a26.334,26.334,0,0,0,.563-4.928c-.005-1.537-.191-5.37-.141-6.759.014-.389.035-.78.035-.78-.095-.608-.159-1.36.106-1.473.361-.154,1.154.955,1.479,1.408a13.28,13.28,0,0,1,1.83,3.591,24.139,24.139,0,0,1,.845,6.969c.008,4.929-.573,8.1-.211,8.166.221.043.616-1.1.845-1.76a17.246,17.246,0,0,0,1.2-5.28c.047-.6.688-8.855,4.505-13.8,1.209-1.565,3.259-3.475,4.435-5.7.093-.176.468-.9.633-.845.208.069-.107,1.308-.211,2.464a13.489,13.489,0,0,0,.634,4.716c.668,2.609,1.118,3.225,2.182,6.336a40,40,0,0,1,1.9,6.688c.61,3.575.341,6.151.774,6.195.227.023.483-.711.986-2.182a24.881,24.881,0,0,0,1.126-3.942,27.607,27.607,0,0,0,.211-5.914c-.034-1.431.084-2.865,0-4.294-.062-1.056-.171-2.111.282-2.323.1-.046.374-.123.986.352,1.56,1.211,1.985,3.427,2.394,5.069.8,3.207,1.085,2.441,1.9,5.632a35.723,35.723,0,0,1,1.056,10.982,29.043,29.043,0,0,1-1.971,9.152,19.509,19.509,0,0,1-3.449,5.984,15,15,0,0,1-4.013,3.45,10.262,10.262,0,0,1-4.717,1.619C2463.165,3763.633,2462.014,3763.283,2459.557,3762.222Z" transform="translate(-2445.649 -3713.574)" fill="#ff4646" stroke="#000" stroke-miterlimit="10" stroke-width="1"/>
    </g>
    <g id="Layer_1" data-name="Layer 1" transform="translate(0 660.341)">
      <g id="Сгруппировать_2" data-name="Сгруппировать 2" transform="translate(27.188 0)">
        <path id="Контур_3" data-name="Контур 3" d="M1218.685,767.112c-.148-6.754,1.172-21.133-1.854-26.327a70.977,70.977,0,0,1-3.147,19.842c-2.275,7.186,1.7,12.587,7.989,15.594l9.119,4.358-10.083-.706c-2.155-.152-4.308-.395-6.436-.76-18.106-3.129-32.678-12.316-30.86-32.506.732-8.115,4.492-18.065,8.955-24.968l1.558-2.406c-1.17-1.122-2.11-1.992-2.626-2.473-10.119-9.381-2.51-18.389,7.493-22.222l1.849-.7a43.141,43.141,0,0,1-.33-9.317c.911-13.042,11.321-20.66,23.908-19.192l3.864.452-2.7,2.793c-3.542,3.659-11.313,20.934-1.306,18.352,3.593-.929.092-4.743-1.336-6.174l-2.29-2.29,3.107-.913c17.064-5.019,14.057,21.988,12.047,31.13-.318,1.435-2.539,12.657,1.411,12.115.487-.066,2.572-.411,2.805-.98,1.078-2.643-7.4-11.583,2.443-22.574l1.425-1.592c-4.358-5.323-8.04-12.887-1.227-25.534l5.258-9.768-1.669,10.97c-2.867,18.862,29.691,30.916,20.907,48.9a61.4,61.4,0,0,1-6.2,9.285c-.4.536-.83,1.1-1.277,1.685l1.786.256c3.673.521,8.363,2.278,10.9,5.082,4.859,5.388,8.747,12.334,6.776,19.794-3.846,14.549-26.586,20.957-39.471,22.8l-7,1L1238,775.7c8.967-7.142,7.2-25.4,1.631-35.687-.489,4.316.848,9.035-.687,14.092l-2.658,8.746-1.09-9.074c-.973-8.08-4.912-13.123-5.2-20.734C1223.658,740.328,1221.527,756.948,1218.685,767.112ZM1224,667.235s-20.39-2.29-21.768,17.414,11,27.5,4.353,29.331-10.31-6.876-8.707-11.687,1.6-5.957,1.6-5.957-19.473,7.33-6.871,19.017,21.536,22.223,11.913,24.745-10.538-17.412-10.538-17.412-29.79,45.826,20.615,54.532a62.849,62.849,0,0,0,6.246.738c-6.389-3.055-11.764-9.154-8.993-17.907a64.488,64.488,0,0,0,2.817-24.277c5.832,3.71,6.952,12.169,5.636,18.424,1.3-9.981,3.613-19.416,11.922-25.9-1.708,10.238,3.682,15.322,4.874,25.253,2.313-7.612-1.331-11.609,1.843-18.1,8.658,10.926,10.487,33.606.251,41.758,25.977-3.7,50.685-18.171,31.537-39.4-3.206-3.551-9.737-4.468-9.737-4.468s9.05,22.452-3.78,15.351,3.2-19.47,8.012-29.323c8.026-16.438-24.123-28.334-21.08-48.346-12.394,23.018,12.086,26.908,7.791,35.973-2.884,6.088-9.241-2.542-8.249-8.476-11.8,13.176,5.711,22.5-6.416,24.175-3.322.458-6.072-2.977-3.552-14.432,1.473-6.684,5.392-33.288-9.625-28.871,0,0,7.561,7.561.458,9.393C1212.941,691.781,1217.323,674.128,1224,667.235ZM1195.834,721.1l.068,1.5c.185,4.021,1.867,17.28,8.133,15.638.821-.214,2.116-.663,2.483-1.527C1207.8,733.7,1200.885,726.11,1195.834,721.1Zm5.469-23.773a44.418,44.418,0,0,1-1.6,5.578c-1.212,3.641,1.543,10.557,6.373,9.223a1.806,1.806,0,0,0,.592-.2c.152-.768-2.831-6.913-3.242-7.937A46.359,46.359,0,0,1,1201.3,697.323Zm44.427.652-.145.86c-.5,2.98,2.9,10.961,4.618,7.338C1251.388,703.671,1248.77,701.268,1245.73,697.975Zm12.818,34.443c-3.6,4.847-7.169,10.847-.4,14.59.482.268,3.019,1.548,3.591,1.066,1.837-1.542-1.738-12.069-2.522-14.013Z" transform="translate(-1183.259 -660.341)" fill="#fff" fill-rule="evenodd"/>
      </g>
      <text id="Created_by_Afebaulia" data-name="Created by Afebaulia" transform="translate(0 136.41)" font-size="1" font-family="SegoeUI, Segoe UI" style="isolation: isolate"><tspan x="0" y="0">Created by Afebaulia</tspan></text>
      <text id="from_the_Noun_Project" data-name="from the Noun Project" transform="translate(0 136.418)" font-size="1" font-family="SegoeUI, Segoe UI" style="isolation: isolate"><tspan x="0" y="0">from the Noun Project</tspan></text>
    </g>
  </g>
</svg>
