<svg xmlns="http://www.w3.org/2000/svg" width="255" height="187" viewBox="0 0 255 187">
  <g id="Сгруппировать_1" data-name="Сгруппировать 1" transform="translate(-1562 -1110)">
    <ellipse id="Эллипс_1" data-name="Эллипс 1" cx="4" cy="4.5" rx="4" ry="4.5" transform="translate(1809 1110)" fill="#fff"/>
    <ellipse id="Эллипс_10" data-name="Эллипс 10" cx="4" cy="4.5" rx="4" ry="4.5" transform="translate(1764 1110)" fill="#fff"/>
    <circle id="Эллипс_11" data-name="Эллипс 11" cx="4.5" cy="4.5" r="4.5" transform="translate(1718 1110)" fill="#fff"/>
    <circle id="Эллипс_16" data-name="Эллипс 16" cx="4.5" cy="4.5" r="4.5" transform="translate(1674 1110)" fill="#fff"/>
    <circle id="Эллипс_21" data-name="Эллипс 21" cx="4.5" cy="4.5" r="4.5" transform="translate(1628 1110)" fill="#fff"/>
    <circle id="Эллипс_2" data-name="Эллипс 2" cx="4" cy="4" r="4" transform="translate(1809 1155)" fill="#fff"/>
    <circle id="Эллипс_9" data-name="Эллипс 9" cx="4" cy="4" r="4" transform="translate(1764 1155)" fill="#fff"/>
    <ellipse id="Эллипс_12" data-name="Эллипс 12" cx="4.5" cy="4" rx="4.5" ry="4" transform="translate(1718 1155)" fill="#fff"/>
    <ellipse id="Эллипс_17" data-name="Эллипс 17" cx="4.5" cy="4" rx="4.5" ry="4" transform="translate(1674 1155)" fill="#fff"/>
    <ellipse id="Эллипс_22" data-name="Эллипс 22" cx="4.5" cy="4" rx="4.5" ry="4" transform="translate(1628 1155)" fill="#fff"/>
    <circle id="Эллипс_3" data-name="Эллипс 3" cx="4" cy="4" r="4" transform="translate(1809 1199)" fill="#fff"/>
    <circle id="Эллипс_8" data-name="Эллипс 8" cx="4" cy="4" r="4" transform="translate(1764 1199)" fill="#fff"/>
    <ellipse id="Эллипс_13" data-name="Эллипс 13" cx="4.5" cy="4" rx="4.5" ry="4" transform="translate(1718 1199)" fill="#fff"/>
    <ellipse id="Эллипс_18" data-name="Эллипс 18" cx="4.5" cy="4" rx="4.5" ry="4" transform="translate(1674 1199)" fill="#fff"/>
    <ellipse id="Эллипс_23" data-name="Эллипс 23" cx="4.5" cy="4" rx="4.5" ry="4" transform="translate(1628 1199)" fill="#fff"/>
    <ellipse id="Эллипс_28" data-name="Эллипс 28" cx="5" cy="4" rx="5" ry="4" transform="translate(1576 1199)" fill="#fff"/>
    <ellipse id="Эллипс_4" data-name="Эллипс 4" cx="4" cy="4.5" rx="4" ry="4.5" transform="translate(1809 1243)" fill="#fff"/>
    <ellipse id="Эллипс_7" data-name="Эллипс 7" cx="4" cy="4.5" rx="4" ry="4.5" transform="translate(1764 1243)" fill="#fff"/>
    <circle id="Эллипс_14" data-name="Эллипс 14" cx="4.5" cy="4.5" r="4.5" transform="translate(1718 1243)" fill="#fff"/>
    <circle id="Эллипс_19" data-name="Эллипс 19" cx="4.5" cy="4.5" r="4.5" transform="translate(1674 1243)" fill="#fff"/>
    <circle id="Эллипс_24" data-name="Эллипс 24" cx="4.5" cy="4.5" r="4.5" transform="translate(1628 1243)" fill="#fff"/>
    <ellipse id="Эллипс_29" data-name="Эллипс 29" cx="5" cy="4.5" rx="5" ry="4.5" transform="translate(1576 1243)" fill="#fff"/>
    <ellipse id="Эллипс_5" data-name="Эллипс 5" cx="4" cy="5" rx="4" ry="5" transform="translate(1809 1287)" fill="#fff"/>
    <ellipse id="Эллипс_6" data-name="Эллипс 6" cx="4" cy="5" rx="4" ry="5" transform="translate(1764 1287)" fill="#fff"/>
    <ellipse id="Эллипс_15" data-name="Эллипс 15" cx="4.5" cy="5" rx="4.5" ry="5" transform="translate(1718 1287)" fill="#fff"/>
    <ellipse id="Эллипс_20" data-name="Эллипс 20" cx="4.5" cy="5" rx="4.5" ry="5" transform="translate(1674 1287)" fill="#fff"/>
    <ellipse id="Эллипс_25" data-name="Эллипс 25" cx="4.5" cy="5" rx="4.5" ry="5" transform="translate(1628 1287)" fill="#fff"/>
    <circle id="Эллипс_30" data-name="Эллипс 30" cx="5" cy="5" r="5" transform="translate(1576 1287)" fill="#fff"/>
    <text id="_4_8" data-name="4 8" transform="translate(1583 1163) rotate(-90)" fill="#ff3e3e" font-size="19" font-family="SegoeUI-Bold, Segoe UI" font-weight="700" letter-spacing="0.68em"><tspan x="0" y="0">4 8</tspan></text>
  </g>
</svg>
