<svg xmlns="http://www.w3.org/2000/svg" width="114.97" height="110.086" viewBox="0 0 114.97 110.086">
  <g id="Сгруппировать_4" data-name="Сгруппировать 4" transform="translate(-0.836 -1.862)">
    <g id="Layer_2" data-name="Layer 2" transform="translate(43.553 46.624)">
      <path id="Контур_4" data-name="Контур 4" d="M19.184,44.525c-.854-.98-.364-2.909,1.975-7.9,2.762-5.886,4.142-8.826,6.073-10.477,1.646-1.406,3.017-1.808,4.254-3.8.4-.647.864-1.58,1.67-1.67.787-.09,1.468.673,1.822,1.063,3.894,4.308,1.891,1.087,4.706,4.858,2.738,3.664,4.106,5.5,5.012,7.441,1.489,3.193.621,2.969,2.277,6.53.814,1.744,1.675,3.2,1.063,4.1-.335.49-.9.5-1.975.759-2.308.547-2.417,1.128-4.556,1.822a19.515,19.515,0,0,1-5.769.759,38.91,38.91,0,0,1-5.01-.152A29.04,29.04,0,0,1,24.045,46.8a20.244,20.244,0,0,1-2.733-1.063A7.4,7.4,0,0,1,19.184,44.525Z" transform="translate(-18.792 -20.678)" fill="#ff4646"/>
    </g>
    <g id="Layer_1" data-name="Layer 1" transform="translate(0.836 1.862)">
      <path id="Контур_5" data-name="Контур 5" d="M94.819,42.162c.119-1.189.183-2.4.183-3.618a36.682,36.682,0,0,0-73.365,0c0,1.223.067,2.429.183,3.618a36.65,36.65,0,1,0,36.5,63.285,36.65,36.65,0,1,0,36.5-63.285Zm-70.8-3.616a34.3,34.3,0,0,1,68.607,0c0,.878-.067,1.737-.133,2.6a36.408,36.408,0,0,0-34.169,3.944,36.406,36.406,0,0,0-34.174-3.942C24.083,40.285,24.017,39.421,24.017,38.546ZM71.822,75.267a34.229,34.229,0,0,1-13.5,27.213,34.235,34.235,0,0,1-13.5-27.213c0-.878.067-1.737.131-2.6a36.211,36.211,0,0,0,26.74,0C71.753,73.528,71.822,74.392,71.822,75.267Zm-13.5-2.419a34.078,34.078,0,0,1-13.091-2.61A34.261,34.261,0,0,1,58.321,48.054,34.278,34.278,0,0,1,71.41,70.238,34.022,34.022,0,0,1,58.321,72.848ZM42.986,69.187A34.339,34.339,0,0,1,24.428,43.572,34.137,34.137,0,0,1,56.3,46.6,36.675,36.675,0,0,0,42.986,69.187ZM60.339,46.6a34.144,34.144,0,0,1,31.873-3.026A34.342,34.342,0,0,1,73.651,69.187,36.646,36.646,0,0,0,60.339,46.6ZM37.52,109.572A34.277,34.277,0,0,1,22.185,44.626,36.739,36.739,0,0,0,42.622,71.649c-.117,1.189-.183,2.4-.183,3.618A36.613,36.613,0,0,0,56.3,103.938,34.088,34.088,0,0,1,37.52,109.572Zm41.606,0a34.089,34.089,0,0,1-18.784-5.633A36.618,36.618,0,0,0,74.2,75.267c0-1.223-.064-2.429-.183-3.618a36.741,36.741,0,0,0,20.44-27.025,34.277,34.277,0,0,1-15.332,64.948Z" transform="translate(-0.836 -1.862)" fill="#fff"/>
    </g>
  </g>
</svg>
